<mxfile host="app.diagrams.net" modified="2024-03-03T17:09:23.388Z" agent="Mozilla/5.0 (X11; Ubuntu; Linux x86_64; rv:123.0) Gecko/20100101 Firefox/123.0" version="23.1.2" etag="_0uPUxqxv0-5hcTq0jHt" type="github">
  <diagram name="Page-1" id="vomRgqeDoXMJSXy5FQNF">
    <mxGraphModel>
      <root>
        <mxCell id="0" />
        <mxCell id="1" parent="0" />
      </root>
    </mxGraphModel>
  </diagram>
</mxfile>
